# Alias OBJ Model File
# Exported from SketchUp, (c) 2000-2006 Google, Inc.
# File units = inches

mtllib cornell.mtl

g Mesh1 Mesh_2 The_Cornell_Box1 Model

usemtl Color_E04
v 10705.1 10363.9 2949.34
vt 3.94318 1.67997
vn -1.6395e-031 1 3.32895e-016
v 6231.61 10363.9 8189.08
vt 1.0746 -1.67997
v 10705.1 10363.9 8189.08
vt 3.94318 -1.67997
f 1/1/1 2/2/1 3/3/1

v 6231.61 10363.9 2949.34
vt 1.0746 1.67997
f 2/2/1 1/1/1 4/4/1

vt -3.94318 1.12683
vn -1.74039e-015 3.32895e-016 -1
v 6231.61 916.535 2949.34
vt -1.0746 -4.9312
vt -1.0746 1.12683
f 1/5/2 5/6/2 4/7/2

v 10705.1 916.535 2949.34
vt -3.94318 -4.9312
f 5/6/2 1/5/2 6/8/2

vt -4.9312 1.67997
vn -1 -4.59556e-031 1.43603e-015
vt 1.12683 -1.67997
vt 1.12683 1.67997
f 5/9/3 2/10/3 4/11/3

v 6231.61 916.535 8189.08
vt -4.9312 -1.67997
f 2/10/3 5/9/3 7/12/3

v 10705.1 916.535 8189.08
vt 3.94318 -4.9312
vn 1.74039e-015 -3.32895e-016 1
vt 1.0746 1.12683
vt 1.0746 -4.9312
f 8/13/4 2/14/4 7/15/4

vt 3.94318 1.12683
f 2/14/4 8/13/4 3/16/4

g Mesh2 Square The_Cornell_Box1 Model

usemtl FrontColor
v -3241.56 16404 13366.6
vt 5 -5
vn 1.6395e-031 -1 -3.32895e-016
v 2093.76 16404 8031.25
vt 1.57876 -1.57876
v 12353.2 16404 13366.6
vt -5 -5
f 9/17/5 10/18/5 11/19/5

v -3241.56 16404 -2228.15
vt 5 5
f 10/18/5 9/17/5 12/20/5

usemtl Color_A02
vt -5 -5
vn 1 1.79504e-031 -1.44876e-015
v -3241.56 809.25 -2228.15
vt 5 5
vt -5 5
f 9/21/6 13/22/6 12/23/6

v -3241.56 809.25 13366.6
vt 5 -5
f 13/22/6 9/21/6 14/24/6

usemtl FrontColor
vt -5 -5
vn 5.53586e-031 1 4.86977e-016
v 12353.2 809.25 -2228.15
vt 5 5
vt -5 5
f 14/25/7 15/26/7 13/27/7

v 12353.2 809.25 13366.6
vt 5 -5
f 15/26/7 14/25/7 16/28/7

usemtl Color_F11
vt 5 -5
vn -1 -2.54398e-031 1.44876e-015
vt -5 5
vt -5 -5
f 11/29/8 15/30/8 16/31/8

v 12353.2 16404 -2228.15
vt 5 5
f 15/30/8 11/29/8 17/32/8

usemtl FrontColor
v 7017.84 16404 8031.25
vt -1.57876 -1.57876
vt -5 5
f 11/19/5 18/33/5 17/34/5

f 18/33/5 11/19/5 10/18/5

v 7017.84 16404 3107.17
vt -1.57876 1.57876
f 17/34/5 18/33/5 19/35/5

f 17/34/5 19/35/5 12/20/5

v 2093.76 16404 3107.17
vt 1.57876 1.57876
f 20/36/5 12/20/5 19/35/5

f 10/18/5 12/20/5 20/36/5

vt -5 5
vn 1.81399e-015 -2.43489e-016 1
vt 5 -5
vt 5 5
f 12/37/9 15/38/9 17/39/9

vt -5 -5
f 15/38/9 12/37/9 13/40/9

g Mesh3 Mesh_1 The_Cornell_Box1 Model

usemtl Color_I05
v 4166.26 4934.76 3865.93
vt -0.249789 1.09222
v -354.413 4934.76 7272.5
vt -3.14864 -1.09222
v 3609.21 4934.76 7829.55
vt -0.606994 -1.44942
f 21/41/1 22/42/1 23/43/1

v 202.638 4934.76 3308.87
vt -2.79143 1.44942
f 22/42/1 21/41/1 24/44/1

vt 2.35455 0.399366
vn 0.139173 3.29655e-016 -0.990268
v 202.638 932.183 3308.87
vt 4.92117 2.96599
vt 2.35455 2.96599
f 21/45/10 25/46/10 24/47/10

v 4166.26 932.183 3865.93
vt 4.92117 0.399366
f 25/46/10 21/45/10 26/48/10

vt 2.35455 1.04683
vn 0.990268 -4.633e-017 0.139173
v 3609.21 932.183 7829.55
vt 4.92117 -1.5198
vt 4.92117 1.04683
f 21/49/11 27/50/11 26/51/11

vt 2.35455 -1.5198
f 27/50/11 21/49/11 23/52/11

vt -2.35455 2.96599
vn -0.139173 -3.29655e-016 0.990268
vt -4.92117 0.399366
vt -2.35455 0.399366
f 22/53/12 27/54/12 23/55/12

v -354.413 932.183 7272.5
vt -4.92117 2.96599
f 27/54/12 22/53/12 28/56/12

vt -2.35455 -1.51979
vn -0.990268 4.633e-017 -0.139173
vt -4.92117 1.04683
vt -4.92117 -1.51979
f 22/57/13 25/58/13 28/59/13

vt -2.35455 1.04683
f 25/58/13 22/57/13 24/60/13

vt 0.249789 1.09222
vn 1.6395e-031 -1 -3.32895e-016
vt 3.14864 -1.09222
vt 2.79143 1.44942
f 26/61/14 28/62/14 25/63/14

vt 0.606994 -1.44942
f 28/62/14 26/61/14 27/64/14

g Mesh4 The_Cornell_Box1 Model

usemtl Color_E04
v 10705.1 916.535 8189.08
vt -8189.08 916.535
vn 1 6.64467e-031 -1.73923e-015
vt -2949.34 10363.9
v 10705.1 10363.9 8189.08
vt -8189.08 10363.9
f 29/65/15 1/66/15 30/67/15

v 10705.1 916.535 2949.34
vt -2949.34 916.535
f 1/66/15 29/65/15 31/68/15

